<?xml version="1.0" standalone="no"?>
<!DOCTYPE svg PUBLIC "-//W3C//DTD SVG 20010904//EN"
 "http://www.w3.org/TR/2001/REC-SVG-20010904/DTD/svg10.dtd">
<svg version="1.0" xmlns="http://www.w3.org/2000/svg"
 width="260.000000pt" height="260.000000pt" viewBox="0 0 260.000000 260.000000"
 preserveAspectRatio="xMidYMid meet">
<metadata>
Created by potrace 1.14, written by Peter Selinger 2001-2017
</metadata>
<g transform="translate(0.000000,260.000000) scale(0.100000,-0.100000)"
fill="#000000" stroke="none">
<path d="M829 2259 c0 -19 0 -75 1 -124 l1 -90 -96 -64 c-168 -111 -320 -280
-404 -448 -76 -152 -112 -341 -90 -468 4 -22 9 -53 12 -70 3 -16 13 -52 22
-80 53 -153 150 -278 290 -369 166 -109 323 -155 546 -161 134 -3 254 14 397
56 l73 22 42 -40 c62 -58 129 -113 140 -113 5 0 8 49 5 118 l-4 119 81 50
c319 203 516 522 517 838 0 55 -2 113 -5 128 -31 153 -96 276 -202 382 -140
142 -307 221 -535 254 -66 10 -284 8 -330 -3 -13 -3 -41 -8 -61 -11 -21 -3
-75 -17 -120 -30 -65 -19 -87 -21 -99 -12 -8 6 -44 36 -80 67 -106 91 -100 88
-101 49z m731 -193 c131 -12 298 -75 394 -148 170 -130 260 -317 251 -522 -2
-45 -6 -90 -8 -101 -27 -118 -76 -229 -144 -323 -57 -80 -162 -184 -242 -240
l-59 -42 -12 72 c-53 338 -170 653 -340 912 -72 110 -197 271 -244 315 -14 14
-26 28 -26 32 0 11 131 41 210 46 41 3 76 6 77 7 3 3 64 -1 143 -8z m-709
-193 c0 -10 2 -27 4 -38 2 -11 9 -49 15 -85 70 -406 278 -829 555 -1127 24
-27 45 -51 45 -54 0 -8 -123 -36 -195 -45 -273 -33 -558 58 -713 225 -284 308
-201 774 193 1085 74 59 95 67 96 39z"/>
</g>
</svg>
